<svg width="274" height="50" viewBox="0 0 274 50" fill="none" xmlns="http://www.w3.org/2000/svg">
<rect x="5" y="33.9886" width="21" height="2" fill="#16133E"/>
<rect x="159" y="33.9886" width="21" height="2" fill="#E30D0D" fill-opacity="0.68"/>
<path d="M29.68 0.749998V27H28.525V2.43L16.135 27.49L3.815 2.115V27H2.66V0.749998H4.305L16.135 25.11L28.07 0.749998H29.68ZM61.6965 27H60.4715L55.5015 16.99H41.5715L36.7065 27H35.4815L48.5715 0.12L61.6965 27ZM55.0815 15.975L48.5015 2.64L42.0615 15.975H55.0815ZM67.5232 0.749998H69.0282C71.7582 0.749998 73.8582 1.47333 75.3282 2.92C76.8215 4.36667 77.5682 6.43167 77.5682 9.115C77.5682 10.655 77.1949 12.0667 76.4482 13.35C75.7249 14.6333 74.7332 15.6483 73.4732 16.395C72.2132 17.1183 70.8249 17.48 69.3082 17.48H69.0632L78.0932 27H76.5882L68.6432 18.67V27H67.5232V0.749998ZM69.2732 16.465C70.6032 16.465 71.8165 16.1383 72.9132 15.485C74.0099 14.8317 74.8732 13.9567 75.5032 12.86C76.1332 11.74 76.4482 10.5033 76.4482 9.15C76.4482 6.79333 75.8065 4.97333 74.5232 3.69C73.2632 2.40667 71.4549 1.765 69.0982 1.765H68.6432V16.465H69.2732ZM96.2262 27.7C93.7762 27.7 91.5245 27.105 89.4712 25.915C87.4179 24.7017 85.7845 23.045 84.5712 20.945C83.3812 18.8217 82.7862 16.4417 82.7862 13.805C82.7862 11.2617 83.4045 8.94 84.6412 6.84C85.9012 4.74 87.5695 3.08333 89.6462 1.87C91.7462 0.656665 93.9745 0.0499986 96.3312 0.0499986C97.9645 0.0499986 99.2595 0.201665 100.216 0.504999C101.173 0.784998 102.281 1.28666 103.541 2.01V3.305C102.351 2.48833 101.243 1.91667 100.216 1.59C99.2129 1.24 97.9529 1.065 96.4362 1.065C94.1262 1.065 92.0145 1.66 90.1012 2.85C88.2112 4.01666 86.7062 5.59167 85.5862 7.575C84.4895 9.535 83.9412 11.6467 83.9412 13.91C83.9412 16.1967 84.5012 18.32 85.6212 20.28C86.7412 22.24 88.2229 23.8033 90.0662 24.97C91.9329 26.1133 93.9395 26.685 96.0862 26.685C97.6262 26.685 98.9679 26.51 100.111 26.16C101.255 25.7867 102.398 25.215 103.541 24.445V25.74C102.421 26.4167 101.266 26.9067 100.076 27.21C98.9095 27.5367 97.6262 27.7 96.2262 27.7ZM118.316 27.7C116.799 27.7 115.446 27.385 114.256 26.755C113.066 26.1017 112.132 25.18 111.456 23.99C110.779 22.8 110.441 21.4117 110.441 19.825V0.749998H111.596V19.79C111.596 21.19 111.887 22.415 112.471 23.465C113.054 24.4917 113.847 25.285 114.851 25.845C115.877 26.405 117.021 26.685 118.281 26.685C119.541 26.685 120.672 26.4167 121.676 25.88C122.702 25.32 123.496 24.5267 124.056 23.5C124.639 22.45 124.931 21.2133 124.931 19.79V0.749998H126.086V19.755C126.086 21.365 125.759 22.7767 125.106 23.99C124.452 25.18 123.531 26.1017 122.341 26.755C121.174 27.385 119.832 27.7 118.316 27.7ZM139.052 27.49C136.135 27.49 133.872 26.2883 132.262 23.885V21.995C132.892 23.395 133.802 24.4917 134.992 25.285C136.205 26.0783 137.652 26.475 139.332 26.475C140.499 26.475 141.572 26.2183 142.552 25.705C143.555 25.1917 144.349 24.4683 144.932 23.535C145.515 22.6017 145.807 21.5283 145.807 20.315C145.807 19.2183 145.62 18.2733 145.247 17.48C144.874 16.6867 144.255 15.9283 143.392 15.205C142.529 14.4583 141.28 13.5833 139.647 12.58L138.527 11.88C137.5 11.25 136.672 10.69 136.042 10.2C135.412 9.71 134.864 9.13833 134.397 8.485C133.79 7.575 133.487 6.525 133.487 5.335C133.487 3.74833 134 2.51167 135.027 1.625C136.054 0.738333 137.36 0.295 138.947 0.295C141.094 0.295 142.797 1.08833 144.057 2.675V4.46C143.52 3.48 142.785 2.71 141.852 2.15C140.919 1.59 139.892 1.31 138.772 1.31C137.605 1.31 136.625 1.67167 135.832 2.395C135.039 3.11833 134.642 4.08667 134.642 5.3C134.642 6.49 135.004 7.51667 135.727 8.38C136.474 9.22 137.722 10.1417 139.472 11.145C141.619 12.405 143.287 13.5483 144.477 14.575C145.317 15.345 145.924 16.1967 146.297 17.13C146.694 18.0633 146.892 19.1017 146.892 20.245C146.892 21.6917 146.554 22.9633 145.877 24.06C145.2 25.1567 144.267 26.0083 143.077 26.615C141.887 27.1983 140.545 27.49 139.052 27.49ZM168.161 27.49C165.244 27.49 162.981 26.2883 161.371 23.885V21.995C162.001 23.395 162.911 24.4917 164.101 25.285C165.314 26.0783 166.761 26.475 168.441 26.475C169.607 26.475 170.681 26.2183 171.661 25.705C172.664 25.1917 173.457 24.4683 174.041 23.535C174.624 22.6017 174.916 21.5283 174.916 20.315C174.916 19.2183 174.729 18.2733 174.356 17.48C173.982 16.6867 173.364 15.9283 172.501 15.205C171.637 14.4583 170.389 13.5833 168.756 12.58L167.636 11.88C166.609 11.25 165.781 10.69 165.151 10.2C164.521 9.71 163.972 9.13833 163.506 8.485C162.899 7.575 162.596 6.525 162.596 5.335C162.596 3.74833 163.109 2.51167 164.136 1.625C165.162 0.738333 166.469 0.295 168.056 0.295C170.202 0.295 171.906 1.08833 173.166 2.675V4.46C172.629 3.48 171.894 2.71 170.961 2.15C170.027 1.59 169.001 1.31 167.881 1.31C166.714 1.31 165.734 1.67167 164.941 2.395C164.147 3.11833 163.751 4.08667 163.751 5.3C163.751 6.49 164.112 7.51667 164.836 8.38C165.582 9.22 166.831 10.1417 168.581 11.145C170.727 12.405 172.396 13.5483 173.586 14.575C174.426 15.345 175.032 16.1967 175.406 17.13C175.802 18.0633 176.001 19.1017 176.001 20.245C176.001 21.6917 175.662 22.9633 174.986 24.06C174.309 25.1567 173.376 26.0083 172.186 26.615C170.996 27.1983 169.654 27.49 168.161 27.49ZM182.159 0.749998H191.574V1.765H183.314V16.045H190.209V17.06H183.314V25.985H191.574V27H182.159V0.749998ZM198.19 3.375V27H197.175V0.364999L216.495 24.34V0.749998H217.51V27.385L198.19 3.375ZM225.149 0.749998H226.304V27H225.149V0.749998ZM239.435 27.49C236.518 27.49 234.255 26.2883 232.645 23.885V21.995C233.275 23.395 234.185 24.4917 235.375 25.285C236.588 26.0783 238.035 26.475 239.715 26.475C240.882 26.475 241.955 26.2183 242.935 25.705C243.938 25.1917 244.732 24.4683 245.315 23.535C245.898 22.6017 246.19 21.5283 246.19 20.315C246.19 19.2183 246.003 18.2733 245.63 17.48C245.257 16.6867 244.638 15.9283 243.775 15.205C242.912 14.4583 241.663 13.5833 240.03 12.58L238.91 11.88C237.883 11.25 237.055 10.69 236.425 10.2C235.795 9.71 235.247 9.13833 234.78 8.485C234.173 7.575 233.87 6.525 233.87 5.335C233.87 3.74833 234.383 2.51167 235.41 1.625C236.437 0.738333 237.743 0.295 239.33 0.295C241.477 0.295 243.18 1.08833 244.44 2.675V4.46C243.903 3.48 243.168 2.71 242.235 2.15C241.302 1.59 240.275 1.31 239.155 1.31C237.988 1.31 237.008 1.67167 236.215 2.395C235.422 3.11833 235.025 4.08667 235.025 5.3C235.025 6.49 235.387 7.51667 236.11 8.38C236.857 9.22 238.105 10.1417 239.855 11.145C242.002 12.405 243.67 13.5483 244.86 14.575C245.7 15.345 246.307 16.1967 246.68 17.13C247.077 18.0633 247.275 19.1017 247.275 20.245C247.275 21.6917 246.937 22.9633 246.26 24.06C245.583 25.1567 244.65 26.0083 243.46 26.615C242.27 27.1983 240.928 27.49 239.435 27.49ZM253.433 0.749998H262.848V1.765H254.588V16.045H261.483V17.06H254.588V25.985H262.848V27H253.433V0.749998Z" fill="black"/>
<path d="M29.68 0.749998H30.68V-0.250002H29.68V0.749998ZM29.68 27V28H30.68V27H29.68ZM28.525 27H27.525V28H28.525V27ZM28.525 2.43H29.525L27.6286 1.9868L28.525 2.43ZM16.135 27.49L15.2354 27.9268L16.1268 29.7628L17.0314 27.9332L16.135 27.49ZM3.815 2.115L4.71458 1.67824L2.815 2.115H3.815ZM3.815 27V28H4.815V27H3.815ZM2.66 27H1.66V28H2.66V27ZM2.66 0.749998V-0.250002H1.66V0.749998H2.66ZM4.305 0.749998L5.20454 0.313154L4.93105 -0.250002H4.305V0.749998ZM16.135 25.11L15.2355 25.5468L16.131 27.391L17.033 25.55L16.135 25.11ZM28.07 0.749998V-0.250002H27.4464L27.172 0.310024L28.07 0.749998ZM28.68 0.749998V27H30.68V0.749998H28.68ZM29.68 26H28.525V28H29.68V26ZM29.525 27V2.43H27.525V27H29.525ZM27.6286 1.9868L15.2386 27.0468L17.0314 27.9332L29.4214 2.8732L27.6286 1.9868ZM17.0346 27.0532L4.71458 1.67824L2.91542 2.55176L15.2354 27.9268L17.0346 27.0532ZM2.815 2.115V27H4.815V2.115H2.815ZM3.815 26H2.66V28H3.815V26ZM3.66 27V0.749998H1.66V27H3.66ZM2.66 1.75H4.305V-0.250002H2.66V1.75ZM3.40546 1.18684L15.2355 25.5468L17.0345 24.6732L5.20454 0.313154L3.40546 1.18684ZM17.033 25.55L28.968 1.18997L27.172 0.310024L15.237 24.67L17.033 25.55ZM28.07 1.75H29.68V-0.250002H28.07V1.75ZM61.6965 27V28H63.2976L62.5951 26.5612L61.6965 27ZM60.4715 27L59.5758 27.4447L59.8516 28H60.4715V27ZM55.5015 16.99L56.3972 16.5453L56.1215 15.99H55.5015V16.99ZM41.5715 16.99V15.99H40.9457L40.6721 16.5529L41.5715 16.99ZM36.7065 27V28H37.3324L37.6059 27.4371L36.7065 27ZM35.4815 27L34.5825 26.5622L33.8823 28H35.4815V27ZM48.5715 0.12L49.4701 -0.31877L48.5703 -2.16156L47.6725 -0.317824L48.5715 0.12ZM55.0815 15.975V16.975H56.6901L55.9783 15.5325L55.0815 15.975ZM48.5015 2.64L49.3983 2.1975L48.4919 0.360529L47.601 2.20512L48.5015 2.64ZM42.0615 15.975L41.161 15.5401L40.4681 16.975H42.0615V15.975ZM61.6965 26H60.4715V28H61.6965V26ZM61.3672 26.5553L56.3972 16.5453L54.6058 17.4347L59.5758 27.4447L61.3672 26.5553ZM55.5015 15.99H41.5715V17.99H55.5015V15.99ZM40.6721 16.5529L35.8071 26.5629L37.6059 27.4371L42.4709 17.4271L40.6721 16.5529ZM36.7065 26H35.4815V28H36.7065V26ZM36.3806 27.4378L49.4706 0.557824L47.6725 -0.317824L34.5825 26.5622L36.3806 27.4378ZM47.6729 0.558769L60.7979 27.4388L62.5951 26.5612L49.4701 -0.31877L47.6729 0.558769ZM55.9783 15.5325L49.3983 2.1975L47.6048 3.0825L54.1848 16.4175L55.9783 15.5325ZM47.601 2.20512L41.161 15.5401L42.962 16.4099L49.402 3.07488L47.601 2.20512ZM42.0615 16.975H55.0815V14.975H42.0615V16.975ZM67.5232 0.749998V-0.250002H66.5232V0.749998H67.5232ZM75.3282 2.92L74.6268 3.63276L74.6324 3.63824L75.3282 2.92ZM76.4482 13.35L75.5838 12.8471L75.5771 12.859L76.4482 13.35ZM73.4732 16.395L73.9711 17.2623L73.983 17.2553L73.4732 16.395ZM69.0632 17.48V16.48H66.7364L68.3377 18.1682L69.0632 17.48ZM78.0932 27V28H80.42L78.8187 26.3118L78.0932 27ZM76.5882 27L75.8646 27.6902L76.1601 28H76.5882V27ZM68.6432 18.67L69.3668 17.9798L67.6432 16.1727V18.67H68.6432ZM68.6432 27V28H69.6432V27H68.6432ZM67.5232 27H66.5232V28H67.5232V27ZM72.9132 15.485L73.425 16.3441L73.425 16.3441L72.9132 15.485ZM75.5032 12.86L76.3703 13.3581L76.3748 13.3503L75.5032 12.86ZM74.5232 3.69L73.8096 4.39062L73.8161 4.39711L74.5232 3.69ZM68.6432 1.765V0.764999H67.6432V1.765H68.6432ZM68.6432 16.465H67.6432V17.465H68.6432V16.465ZM67.5232 1.75H69.0282V-0.250002H67.5232V1.75ZM69.0282 1.75C71.5835 1.75 73.3982 2.42371 74.6268 3.63274L76.0296 2.20726C74.3182 0.522953 71.9329 -0.250002 69.0282 -0.250002V1.75ZM74.6324 3.63824C75.879 4.84591 76.5682 6.61977 76.5682 9.115H78.5682C78.5682 6.24356 77.764 3.88742 76.024 2.20176L74.6324 3.63824ZM76.5682 9.115C76.5682 10.4852 76.2383 11.7223 75.5839 12.8471L77.3126 13.8529C78.1515 12.411 78.5682 10.8248 78.5682 9.115H76.5682ZM75.5771 12.859C74.9392 13.9906 74.0718 14.8779 72.9634 15.5347L73.983 17.2553C75.3946 16.4188 76.5105 15.276 77.3194 13.841L75.5771 12.859ZM72.9753 15.5277C71.8736 16.1602 70.6582 16.48 69.3082 16.48V18.48C70.9916 18.48 72.5528 18.0765 73.9711 17.2623L72.9753 15.5277ZM69.3082 16.48H69.0632V18.48H69.3082V16.48ZM68.3377 18.1682L77.3677 27.6882L78.8187 26.3118L69.7887 16.7918L68.3377 18.1682ZM78.0932 26H76.5882V28H78.0932V26ZM77.3118 26.3098L69.3668 17.9798L67.9196 19.3602L75.8646 27.6902L77.3118 26.3098ZM67.6432 18.67V27H69.6432V18.67H67.6432ZM68.6432 26H67.5232V28H68.6432V26ZM68.5232 27V0.749998H66.5232V27H68.5232ZM69.2732 17.465C70.7755 17.465 72.1669 17.0936 73.425 16.3441L72.4014 14.6259C71.4662 15.1831 70.4309 15.465 69.2732 15.465V17.465ZM73.425 16.3441C74.6677 15.6038 75.654 14.6051 76.3703 13.3581L74.6361 12.3619C74.0924 13.3083 73.3521 14.0595 72.4014 14.6259L73.425 16.3441ZM76.3748 13.3503C77.0935 12.0725 77.4482 10.6656 77.4482 9.15H75.4482C75.4482 10.3411 75.1729 11.4075 74.6316 12.3697L76.3748 13.3503ZM77.4482 9.15C77.4482 6.61067 76.7524 4.50502 75.2303 2.98289L73.8161 4.39711C74.8606 5.44164 75.4482 6.976 75.4482 9.15H77.4482ZM75.2368 2.98941C73.7355 1.46039 71.6364 0.764999 69.0982 0.764999V2.765C71.2733 2.765 72.7909 3.35294 73.8096 4.39059L75.2368 2.98941ZM69.0982 0.764999H68.6432V2.765H69.0982V0.764999ZM67.6432 1.765V16.465H69.6432V1.765H67.6432ZM68.6432 17.465H69.2732V15.465H68.6432V17.465ZM89.4712 25.915L88.9625 26.776L88.9698 26.7802L89.4712 25.915ZM84.5712 20.945L83.6988 21.4339L83.7053 21.4453L84.5712 20.945ZM84.6412 6.84L83.7837 6.32549L83.7795 6.33256L84.6412 6.84ZM89.6462 1.87L89.1459 1.00412L89.1417 1.00657L89.6462 1.87ZM100.216 0.504999L99.914 1.45823L99.9246 1.4616L99.9353 1.46474L100.216 0.504999ZM103.541 2.01H104.541V1.43101L104.039 1.14275L103.541 2.01ZM103.541 3.305L102.975 4.12951L104.541 5.20411V3.305H103.541ZM100.216 1.59L99.8868 2.5342L99.8999 2.53874L99.913 2.54293L100.216 1.59ZM90.1012 2.85L90.6265 3.70094L90.6293 3.69916L90.1012 2.85ZM85.5862 7.575L84.7155 7.08328L84.7135 7.08671L85.5862 7.575ZM85.6212 20.28L84.753 20.7761L84.753 20.7761L85.6212 20.28ZM90.0662 24.97L89.5314 25.815L89.5376 25.8189L89.5439 25.8228L90.0662 24.97ZM100.111 26.16L100.404 27.1162L100.413 27.1135L100.422 27.1106L100.111 26.16ZM103.541 24.445H104.541V22.5659L102.983 23.6156L103.541 24.445ZM103.541 25.74L104.058 26.5959L104.541 26.3042V25.74H103.541ZM100.076 27.21L99.8292 26.241L99.8179 26.2439L99.8066 26.247L100.076 27.21ZM96.2262 26.7C93.9464 26.7 91.8685 26.1486 89.9726 25.0498L88.9698 26.7802C91.1805 28.0614 93.6061 28.7 96.2262 28.7V26.7ZM89.9799 25.0541C88.0773 23.9298 86.5659 22.3984 85.4371 20.4447L83.7053 21.4453C85.0032 23.6916 86.7585 25.4736 88.9625 26.7759L89.9799 25.0541ZM85.4436 20.4561C84.3441 18.4944 83.7862 16.2851 83.7862 13.805H81.7862C81.7862 16.5982 82.4183 19.1489 83.6989 21.4339L85.4436 20.4561ZM83.7862 13.805C83.7862 11.432 84.3608 9.28681 85.5029 7.34744L83.7795 6.33256C82.4483 8.59319 81.7862 11.0913 81.7862 13.805H83.7862ZM85.4987 7.35449C86.6739 5.39588 88.2219 3.86037 90.1507 2.73342L89.1417 1.00657C86.9172 2.3063 85.1286 4.08412 83.7837 6.3255L85.4987 7.35449ZM90.1465 2.73586C92.099 1.60772 94.1555 1.05 96.3312 1.05V-0.950001C93.7936 -0.950001 91.3934 -0.294394 89.1459 1.00413L90.1465 2.73586ZM96.3312 1.05C97.9178 1.05 99.0969 1.19915 99.914 1.45823L100.518 -0.448232C99.4222 -0.795822 98.0113 -0.950001 96.3312 -0.950001V1.05ZM99.9353 1.46474C100.79 1.71501 101.824 2.17705 103.043 2.87725L104.039 1.14275C102.739 0.396284 101.555 -0.145017 100.497 -0.454739L99.9353 1.46474ZM102.541 2.01V3.305H104.541V2.01H102.541ZM104.107 2.48048C102.862 1.62592 101.665 1.00157 100.519 0.637074L99.913 2.54293C100.821 2.83176 101.841 3.35074 102.975 4.12951L104.107 2.48048ZM100.546 0.6458C99.4017 0.246753 98.0212 0.064998 96.4362 0.064998V2.065C97.8846 2.065 99.0241 2.23324 99.8868 2.5342L100.546 0.6458ZM96.4362 0.064998C93.9445 0.064998 91.6491 0.709662 89.5731 2.00084L90.6293 3.69916C92.38 2.61033 94.3079 2.065 96.4362 2.065V0.064998ZM89.5759 1.99906C87.5385 3.25672 85.9163 4.95688 84.7155 7.08328L86.457 8.06672C87.4962 6.22645 88.8839 4.77661 90.6265 3.70093L89.5759 1.99906ZM84.7135 7.08671C83.5327 9.19712 82.9412 11.4771 82.9412 13.91H84.9412C84.9412 11.8162 85.4464 9.87288 86.4589 8.06329L84.7135 7.08671ZM82.9412 13.91C82.9412 16.3683 83.5455 18.663 84.753 20.7761L86.4895 19.7839C85.457 17.977 84.9412 16.025 84.9412 13.91H82.9412ZM84.753 20.7761C85.9511 22.8728 87.5452 24.5579 89.5314 25.815L90.601 24.125C88.9005 23.0488 87.5314 21.6072 86.4895 19.7839L84.753 20.7761ZM89.5439 25.8228C91.5645 27.0604 93.7514 27.685 96.0862 27.685V25.685C94.1277 25.685 92.3013 25.1663 90.5885 24.1172L89.5439 25.8228ZM96.0862 27.685C97.6984 27.685 99.143 27.5022 100.404 27.1162L99.8185 25.2038C98.7928 25.5178 97.554 25.685 96.0862 25.685V27.685ZM100.422 27.1106C101.665 26.7047 102.891 26.0887 104.1 25.2744L102.983 23.6156C101.905 24.3413 100.844 24.8686 99.8008 25.2094L100.422 27.1106ZM102.541 24.445V25.74H104.541V24.445H102.541ZM103.024 24.8841C101.983 25.5133 100.918 25.9634 99.8292 26.241L100.323 28.179C101.614 27.8499 102.86 27.32 104.058 26.5959L103.024 24.8841ZM99.8066 26.247C98.7401 26.5457 97.5489 26.7 96.2262 26.7V28.7C97.7035 28.7 99.079 28.5277 100.346 28.173L99.8066 26.247ZM114.256 26.755L113.774 27.6316L113.781 27.6352L113.788 27.6388L114.256 26.755ZM111.456 23.99L110.586 24.4843L110.586 24.4843L111.456 23.99ZM110.441 0.749998V-0.250002H109.441V0.749998H110.441ZM111.596 0.749998H112.596V-0.250002H111.596V0.749998ZM112.471 23.465L111.596 23.9507L111.601 23.959L112.471 23.465ZM114.851 25.845L114.363 26.7182L114.372 26.7229L114.851 25.845ZM121.676 25.88L122.147 26.7618L122.154 26.7579L121.676 25.88ZM124.056 23.5L123.181 23.0143L123.178 23.0211L124.056 23.5ZM124.931 0.749998V-0.250002H123.931V0.749998H124.931ZM126.086 0.749998H127.086V-0.250002H126.086V0.749998ZM125.106 23.99L125.982 24.4713L125.986 24.4641L125.106 23.99ZM122.341 26.755L122.816 27.6349L122.822 27.6316L122.341 26.755ZM118.316 26.7C116.941 26.7 115.752 26.4157 114.723 25.8712L113.788 27.6388C115.139 28.3543 116.657 28.7 118.316 28.7V26.7ZM114.737 25.8784C113.71 25.3149 112.911 24.5262 112.325 23.4957L110.586 24.4843C111.354 25.8338 112.421 26.8884 113.774 27.6316L114.737 25.8784ZM112.325 23.4957C111.747 22.4788 111.441 21.2662 111.441 19.825H109.441C109.441 21.5571 109.811 23.1212 110.586 24.4843L112.325 23.4957ZM111.441 19.825V0.749998H109.441V19.825H111.441ZM110.441 1.75H111.596V-0.250002H110.441V1.75ZM110.596 0.749998V19.79H112.596V0.749998H110.596ZM110.596 19.79C110.596 21.3316 110.918 22.7292 111.596 23.9506L113.345 22.9794C112.857 22.1008 112.596 21.0484 112.596 19.79H110.596ZM111.601 23.959C112.272 25.14 113.196 26.0665 114.363 26.7182L115.338 24.9718C114.499 24.5035 113.836 23.8433 113.34 22.971L111.601 23.959ZM114.372 26.7229C115.557 27.3692 116.867 27.685 118.281 27.685V25.685C117.175 25.685 116.198 25.4408 115.329 24.9671L114.372 26.7229ZM118.281 27.685C119.687 27.685 120.984 27.3841 122.147 26.7618L121.204 24.9982C120.361 25.4492 119.394 25.685 118.281 25.685V27.685ZM122.154 26.7579C123.35 26.106 124.282 25.1741 124.933 23.9789L123.178 23.0211C122.71 23.8792 122.055 24.534 121.197 25.0021L122.154 26.7579ZM124.93 23.9856C125.61 22.7618 125.931 21.3518 125.931 19.79H123.931C123.931 21.0749 123.668 22.1382 123.181 23.0144L124.93 23.9856ZM125.931 19.79V0.749998H123.931V19.79H125.931ZM124.931 1.75H126.086V-0.250002H124.931V1.75ZM125.086 0.749998V19.755H127.086V0.749998H125.086ZM125.086 19.755C125.086 21.2275 124.788 22.471 124.225 23.5159L125.986 24.4641C126.73 23.0823 127.086 21.5025 127.086 19.755H125.086ZM124.229 23.5087C123.667 24.5321 122.883 25.3166 121.859 25.8784L122.822 27.6316C124.179 26.8867 125.237 25.8279 125.982 24.4713L124.229 23.5087ZM121.865 25.8751C120.865 26.4156 119.69 26.7 118.316 26.7V28.7C119.974 28.7 121.483 28.3544 122.816 27.6349L121.865 25.8751ZM132.262 23.885H131.262V24.189L131.431 24.4416L132.262 23.885ZM132.262 21.995L133.174 21.5846L131.262 21.995H132.262ZM134.992 25.285L134.437 26.1171L134.445 26.122L134.992 25.285ZM142.552 25.705L142.096 24.8147L142.088 24.8192L142.552 25.705ZM144.932 23.535L145.78 24.065L145.78 24.065L144.932 23.535ZM145.247 17.48L144.342 17.9058L145.247 17.48ZM143.392 15.205L142.738 15.9614L142.744 15.9665L142.75 15.9715L143.392 15.205ZM139.647 12.58L139.117 13.428L139.124 13.4321L139.647 12.58ZM138.527 11.88L139.057 11.032L139.05 11.0277L138.527 11.88ZM136.042 10.2L135.428 10.9894L135.428 10.9894L136.042 10.2ZM134.397 8.485L133.565 9.0397L133.574 9.05312L133.583 9.06624L134.397 8.485ZM144.057 2.675H145.057V2.32624L144.84 2.05312L144.057 2.675ZM144.057 4.46L143.18 4.94031L145.057 4.46H144.057ZM135.832 2.395L136.506 3.13396L136.506 3.13396L135.832 2.395ZM135.727 8.38L134.96 9.02222L134.97 9.03343L134.98 9.04436L135.727 8.38ZM139.472 11.145L139.978 10.2825L139.969 10.2775L139.472 11.145ZM144.477 14.575L145.153 13.8378L145.142 13.8277L145.13 13.8178L144.477 14.575ZM146.297 17.13L145.369 17.5014L145.372 17.5113L145.377 17.5211L146.297 17.13ZM145.877 24.06L146.728 24.5851L146.728 24.5851L145.877 24.06ZM143.077 26.615L143.517 27.5129L143.524 27.5095L143.531 27.5059L143.077 26.615ZM139.052 26.49C136.466 26.49 134.515 25.4519 133.093 23.3284L131.431 24.4416C133.229 27.1248 135.805 28.49 139.052 28.49V26.49ZM133.262 23.885V21.995H131.262V23.885H133.262ZM131.35 22.4054C132.051 23.9636 133.079 25.2118 134.437 26.1171L135.547 24.4529C134.525 23.7715 133.733 22.8264 133.174 21.5846L131.35 22.4054ZM134.445 26.122C135.845 27.0378 137.489 27.475 139.332 27.475V25.475C137.815 25.475 136.565 25.1189 135.539 24.448L134.445 26.122ZM139.332 27.475C140.651 27.475 141.885 27.1833 143.016 26.5908L142.088 24.8192C141.259 25.2534 140.346 25.475 139.332 25.475V27.475ZM143.007 26.5952C144.168 26.0016 145.098 25.1555 145.78 24.065L144.084 23.005C143.599 23.7811 142.943 24.3817 142.097 24.8148L143.007 26.5952ZM145.78 24.065C146.473 22.9567 146.807 21.6959 146.807 20.315H144.807C144.807 21.3608 144.558 22.2466 144.084 23.005L145.78 24.065ZM146.807 20.315C146.807 19.107 146.602 18.0098 146.152 17.0542L144.342 17.9058C144.639 18.5369 144.807 19.3296 144.807 20.315H146.807ZM146.152 17.0542C145.702 16.0978 144.978 15.2294 144.034 14.4385L142.75 15.9715C143.532 16.6272 144.046 17.2755 144.342 17.9058L146.152 17.0542ZM144.046 14.4486C143.124 13.6508 141.823 12.7433 140.17 11.7279L139.124 13.4321C140.737 14.4233 141.934 15.2658 142.738 15.9614L144.046 14.4486ZM140.177 11.732L139.057 11.032L137.997 12.728L139.117 13.428L140.177 11.732ZM139.05 11.0277C138.041 10.4083 137.246 9.86972 136.656 9.41065L135.428 10.9894C136.098 11.5103 136.96 12.0917 138.004 12.7323L139.05 11.0277ZM136.656 9.41065C136.103 8.98035 135.622 8.47891 135.211 7.90376L133.583 9.06624C134.106 9.79776 134.721 10.4396 135.428 10.9894L136.656 9.41065ZM135.229 7.9303C134.742 7.19905 134.487 6.34574 134.487 5.335H132.487C132.487 6.70426 132.839 7.95094 133.565 9.0397L135.229 7.9303ZM134.487 5.335C134.487 3.98447 134.912 3.0456 135.681 2.38182L134.373 0.868176C133.089 1.97773 132.487 3.5122 132.487 5.335H134.487ZM135.681 2.38182C136.496 1.678 137.557 1.295 138.947 1.295V-0.705C137.163 -0.705 135.612 -0.201336 134.373 0.868176L135.681 2.38182ZM138.947 1.295C140.81 1.295 142.216 1.96504 143.274 3.29688L144.84 2.05312C143.378 0.211626 141.378 -0.705 138.947 -0.705V1.295ZM143.057 2.675V4.46H145.057V2.675H143.057ZM144.934 3.97968C144.315 2.84833 143.456 1.94633 142.366 1.29251L141.337 3.00749C142.114 3.47367 142.726 4.11166 143.18 4.94031L144.934 3.97968ZM142.366 1.29251C141.273 0.63646 140.068 0.309999 138.772 0.309999V2.31C139.716 2.31 140.564 2.54354 141.337 3.00749L142.366 1.29251ZM138.772 0.309999C137.38 0.309999 136.152 0.749578 135.158 1.65604L136.506 3.13396C137.098 2.59375 137.831 2.31 138.772 2.31V0.309999ZM135.158 1.65604C134.129 2.59453 133.642 3.84594 133.642 5.3H135.642C135.642 4.32739 135.948 3.64213 136.506 3.13396L135.158 1.65604ZM133.642 5.3C133.642 6.71047 134.077 7.96815 134.96 9.02222L136.494 7.73778C135.93 7.06518 135.642 6.26953 135.642 5.3H133.642ZM134.98 9.04436C135.834 10.0053 137.193 10.991 138.975 12.0125L139.969 10.2775C138.251 9.29231 137.114 8.43468 136.474 7.71564L134.98 9.04436ZM138.966 12.0074C141.087 13.2523 142.698 14.3609 143.824 15.3322L145.13 13.8178C143.876 12.7358 142.151 11.5577 139.978 10.2826L138.966 12.0074ZM143.801 15.3122C144.545 15.9943 145.058 16.725 145.369 17.5014L147.225 16.7586C146.789 15.6684 146.089 14.6957 145.153 13.8378L143.801 15.3122ZM145.377 17.5211C145.714 18.316 145.892 19.219 145.892 20.245H147.892C147.892 18.9844 147.673 17.8107 147.217 16.7389L145.377 17.5211ZM145.892 20.245C145.892 21.5296 145.594 22.6148 145.026 23.5349L146.728 24.5851C147.514 23.3118 147.892 21.8538 147.892 20.245H145.892ZM145.026 23.5349C144.449 24.4697 143.656 25.1975 142.623 25.7241L143.531 27.5059C144.878 26.8192 145.951 25.8436 146.728 24.5851L145.026 23.5349ZM142.637 25.7171C141.6 26.2252 140.412 26.49 139.052 26.49V28.49C140.678 28.49 142.174 28.1715 143.517 27.5129L142.637 25.7171ZM161.371 23.885H160.371V24.189L160.54 24.4416L161.371 23.885ZM161.371 21.995L162.283 21.5846L160.371 21.995H161.371ZM164.101 25.285L163.546 26.1171L163.554 26.122L164.101 25.285ZM171.661 25.705L171.205 24.8147L171.197 24.8192L171.661 25.705ZM174.041 23.535L174.889 24.065L174.889 24.065L174.041 23.535ZM174.356 17.48L173.451 17.9058L174.356 17.48ZM172.501 15.205L171.847 15.9614L171.853 15.9665L171.859 15.9715L172.501 15.205ZM168.756 12.58L168.226 13.428L168.232 13.4321L168.756 12.58ZM167.636 11.88L168.166 11.032L168.159 11.0277L167.636 11.88ZM165.151 10.2L164.537 10.9894L164.537 10.9894L165.151 10.2ZM163.506 8.485L162.674 9.0397L162.683 9.05312L162.692 9.06624L163.506 8.485ZM173.166 2.675H174.166V2.32624L173.949 2.05312L173.166 2.675ZM173.166 4.46L172.289 4.94031L174.166 4.46H173.166ZM164.941 2.395L165.615 3.13396L165.615 3.13396L164.941 2.395ZM164.836 8.38L164.069 9.02222L164.079 9.03343L164.088 9.04436L164.836 8.38ZM168.581 11.145L169.087 10.2825L169.078 10.2775L168.581 11.145ZM173.586 14.575L174.262 13.8378L174.25 13.8277L174.239 13.8178L173.586 14.575ZM175.406 17.13L174.477 17.5014L174.481 17.5113L174.485 17.5211L175.406 17.13ZM174.986 24.06L175.837 24.5851L175.837 24.5851L174.986 24.06ZM172.186 26.615L172.626 27.5129L172.633 27.5095L172.64 27.5059L172.186 26.615ZM168.161 26.49C165.574 26.49 163.624 25.4519 162.202 23.3284L160.54 24.4416C162.337 27.1248 164.914 28.49 168.161 28.49V26.49ZM162.371 23.885V21.995H160.371V23.885H162.371ZM160.459 22.4054C161.16 23.9636 162.188 25.2118 163.546 26.1171L164.655 24.4529C163.633 23.7715 162.842 22.8264 162.283 21.5846L160.459 22.4054ZM163.554 26.122C164.954 27.0378 166.598 27.475 168.441 27.475V25.475C166.924 25.475 165.674 25.1189 164.648 24.448L163.554 26.122ZM168.441 27.475C169.76 27.475 170.994 27.1833 172.125 26.5908L171.197 24.8192C170.368 25.2534 169.455 25.475 168.441 25.475V27.475ZM172.116 26.5952C173.277 26.0016 174.207 25.1555 174.889 24.065L173.193 23.005C172.708 23.7811 172.052 24.3817 171.205 24.8148L172.116 26.5952ZM174.889 24.065C175.581 22.9567 175.916 21.6959 175.916 20.315H173.916C173.916 21.3608 173.667 22.2466 173.193 23.005L174.889 24.065ZM175.916 20.315C175.916 19.107 175.71 18.0098 175.261 17.0542L173.451 17.9058C173.748 18.5369 173.916 19.3296 173.916 20.315H175.916ZM175.261 17.0542C174.811 16.0978 174.087 15.2294 173.143 14.4385L171.859 15.9715C172.641 16.6272 173.154 17.2755 173.451 17.9058L175.261 17.0542ZM173.155 14.4486C172.232 13.6508 170.932 12.7433 169.279 11.7279L168.232 13.4321C169.846 14.4233 171.042 15.2658 171.847 15.9614L173.155 14.4486ZM169.286 11.732L168.166 11.032L167.106 12.728L168.226 13.428L169.286 11.732ZM168.159 11.0277C167.149 10.4083 166.355 9.86972 165.765 9.41065L164.537 10.9894C165.207 11.5103 166.069 12.0917 167.113 12.7323L168.159 11.0277ZM165.765 9.41065C165.211 8.98035 164.73 8.47891 164.32 7.90376L162.692 9.06624C163.215 9.79776 163.83 10.4396 164.537 10.9894L165.765 9.41065ZM164.338 7.9303C163.85 7.19905 163.596 6.34574 163.596 5.335H161.596C161.596 6.70426 161.948 7.95094 162.674 9.0397L164.338 7.9303ZM163.596 5.335C163.596 3.98447 164.021 3.0456 164.789 2.38182L163.482 0.868176C162.197 1.97773 161.596 3.5122 161.596 5.335H163.596ZM164.789 2.38182C165.604 1.678 166.666 1.295 168.056 1.295V-0.705C166.272 -0.705 164.721 -0.201336 163.482 0.868176L164.789 2.38182ZM168.056 1.295C169.918 1.295 171.325 1.96504 172.383 3.29688L173.949 2.05312C172.487 0.211626 170.487 -0.705 168.056 -0.705V1.295ZM172.166 2.675V4.46H174.166V2.675H172.166ZM174.043 3.97968C173.423 2.84833 172.565 1.94633 171.475 1.29251L170.446 3.00749C171.223 3.47367 171.835 4.11166 172.289 4.94031L174.043 3.97968ZM171.475 1.29251C170.382 0.63646 169.177 0.309999 167.881 0.309999V2.31C168.825 2.31 169.673 2.54354 170.446 3.00749L171.475 1.29251ZM167.881 0.309999C166.488 0.309999 165.261 0.749578 164.267 1.65604L165.615 3.13396C166.207 2.59375 166.94 2.31 167.881 2.31V0.309999ZM164.267 1.65604C163.238 2.59453 162.751 3.84594 162.751 5.3H164.751C164.751 4.32739 165.057 3.64213 165.615 3.13396L164.267 1.65604ZM162.751 5.3C162.751 6.71047 163.186 7.96815 164.069 9.02222L165.602 7.73778C165.039 7.06518 164.751 6.26953 164.751 5.3H162.751ZM164.088 9.04436C164.943 10.0053 166.302 10.991 168.083 12.0125L169.078 10.2775C167.36 9.29231 166.222 8.43468 165.583 7.71564L164.088 9.04436ZM168.075 12.0074C170.196 13.2523 171.807 14.3609 172.933 15.3322L174.239 13.8178C172.985 12.7358 171.259 11.5577 169.087 10.2826L168.075 12.0074ZM172.91 15.3122C173.654 15.9943 174.167 16.725 174.477 17.5014L176.334 16.7586C175.898 15.6684 175.197 14.6957 174.262 13.8378L172.91 15.3122ZM174.485 17.5211C174.823 18.316 175.001 19.219 175.001 20.245H177.001C177.001 18.9844 176.782 17.8107 176.326 16.7389L174.485 17.5211ZM175.001 20.245C175.001 21.5296 174.702 22.6148 174.135 23.5349L175.837 24.5851C176.622 23.3118 177.001 21.8538 177.001 20.245H175.001ZM174.135 23.5349C173.558 24.4697 172.765 25.1975 171.732 25.7241L172.64 27.5059C173.987 26.8192 175.06 25.8436 175.837 24.5851L174.135 23.5349ZM171.746 25.7171C170.709 26.2252 169.521 26.49 168.161 26.49V28.49C169.787 28.49 171.282 28.1715 172.626 27.5129L171.746 25.7171ZM182.159 0.749998V-0.250002H181.159V0.749998H182.159ZM191.574 0.749998H192.574V-0.250002H191.574V0.749998ZM191.574 1.765V2.765H192.574V1.765H191.574ZM183.314 1.765V0.764999H182.314V1.765H183.314ZM183.314 16.045H182.314V17.045H183.314V16.045ZM190.209 16.045H191.209V15.045H190.209V16.045ZM190.209 17.06V18.06H191.209V17.06H190.209ZM183.314 17.06V16.06H182.314V17.06H183.314ZM183.314 25.985H182.314V26.985H183.314V25.985ZM191.574 25.985H192.574V24.985H191.574V25.985ZM191.574 27V28H192.574V27H191.574ZM182.159 27H181.159V28H182.159V27ZM182.159 1.75H191.574V-0.250002H182.159V1.75ZM190.574 0.749998V1.765H192.574V0.749998H190.574ZM191.574 0.764999H183.314V2.765H191.574V0.764999ZM182.314 1.765V16.045H184.314V1.765H182.314ZM183.314 17.045H190.209V15.045H183.314V17.045ZM189.209 16.045V17.06H191.209V16.045H189.209ZM190.209 16.06H183.314V18.06H190.209V16.06ZM182.314 17.06V25.985H184.314V17.06H182.314ZM183.314 26.985H191.574V24.985H183.314V26.985ZM190.574 25.985V27H192.574V25.985H190.574ZM191.574 26H182.159V28H191.574V26ZM183.159 27V0.749998H181.159V27H183.159ZM198.19 3.375L198.969 2.74809L197.19 0.537117V3.375H198.19ZM198.19 27V28H199.19V27H198.19ZM197.175 27H196.175V28H197.175V27ZM197.175 0.364999L197.954 -0.262465L196.175 -2.46966V0.364999H197.175ZM216.495 24.34L215.716 24.9675L217.495 27.1747V24.34H216.495ZM216.495 0.749998V-0.250002H215.495V0.749998H216.495ZM217.51 0.749998H218.51V-0.250002H217.51V0.749998ZM217.51 27.385L216.731 28.0119L218.51 30.2229V27.385H217.51ZM197.19 3.375V27H199.19V3.375H197.19ZM198.19 26H197.175V28H198.19V26ZM198.175 27V0.364999H196.175V27H198.175ZM196.396 0.992462L215.716 24.9675L217.274 23.7125L197.954 -0.262465L196.396 0.992462ZM217.495 24.34V0.749998H215.495V24.34H217.495ZM216.495 1.75H217.51V-0.250002H216.495V1.75ZM216.51 0.749998V27.385H218.51V0.749998H216.51ZM218.289 26.7581L198.969 2.74809L197.411 4.00191L216.731 28.0119L218.289 26.7581ZM225.149 0.749998V-0.250002H224.149V0.749998H225.149ZM226.304 0.749998H227.304V-0.250002H226.304V0.749998ZM226.304 27V28H227.304V27H226.304ZM225.149 27H224.149V28H225.149V27ZM225.149 1.75H226.304V-0.250002H225.149V1.75ZM225.304 0.749998V27H227.304V0.749998H225.304ZM226.304 26H225.149V28H226.304V26ZM226.149 27V0.749998H224.149V27H226.149ZM232.645 23.885H231.645V24.189L231.814 24.4416L232.645 23.885ZM232.645 21.995L233.557 21.5846L231.645 21.995H232.645ZM235.375 25.285L234.82 26.1171L234.828 26.122L235.375 25.285ZM242.935 25.705L242.48 24.8147L242.471 24.8192L242.935 25.705ZM245.315 23.535L246.163 24.065L246.163 24.065L245.315 23.535ZM245.63 17.48L244.725 17.9058L245.63 17.48ZM243.775 15.205L243.121 15.9614L243.127 15.9665L243.133 15.9715L243.775 15.205ZM240.03 12.58L239.5 13.428L239.507 13.4321L240.03 12.58ZM238.91 11.88L239.44 11.032L239.433 11.0277L238.91 11.88ZM236.425 10.2L235.811 10.9894L235.811 10.9894L236.425 10.2ZM234.78 8.485L233.948 9.0397L233.957 9.05312L233.966 9.06624L234.78 8.485ZM244.44 2.675H245.44V2.32624L245.223 2.05312L244.44 2.675ZM244.44 4.46L243.563 4.94031L245.44 4.46H244.44ZM236.215 2.395L236.889 3.13396L236.889 3.13396L236.215 2.395ZM236.11 8.38L235.343 9.02222L235.353 9.03343L235.363 9.04436L236.11 8.38ZM239.855 11.145L240.361 10.2825L240.352 10.2775L239.855 11.145ZM244.86 14.575L245.536 13.8378L245.525 13.8277L245.513 13.8178L244.86 14.575ZM246.68 17.13L245.752 17.5014L245.755 17.5113L245.76 17.5211L246.68 17.13ZM246.26 24.06L247.111 24.5851L247.111 24.5851L246.26 24.06ZM243.46 26.615L243.9 27.5129L243.907 27.5095L243.914 27.5059L243.46 26.615ZM239.435 26.49C236.849 26.49 234.898 25.4519 233.476 23.3284L231.814 24.4416C233.612 27.1248 236.188 28.49 239.435 28.49V26.49ZM233.645 23.885V21.995H231.645V23.885H233.645ZM231.733 22.4054C232.434 23.9636 233.462 25.2118 234.82 26.1171L235.93 24.4529C234.908 23.7715 234.116 22.8264 233.557 21.5846L231.733 22.4054ZM234.828 26.122C236.228 27.0378 237.872 27.475 239.715 27.475V25.475C238.198 25.475 236.948 25.1189 235.922 24.448L234.828 26.122ZM239.715 27.475C241.034 27.475 242.268 27.1833 243.399 26.5908L242.471 24.8192C241.642 25.2534 240.729 25.475 239.715 25.475V27.475ZM243.39 26.5952C244.551 26.0016 245.481 25.1555 246.163 24.065L244.467 23.005C243.982 23.7811 243.326 24.3817 242.48 24.8148L243.39 26.5952ZM246.163 24.065C246.856 22.9567 247.19 21.6959 247.19 20.315H245.19C245.19 21.3608 244.941 22.2466 244.467 23.005L246.163 24.065ZM247.19 20.315C247.19 19.107 246.985 18.0098 246.535 17.0542L244.725 17.9058C245.022 18.5369 245.19 19.3296 245.19 20.315H247.19ZM246.535 17.0542C246.085 16.0978 245.361 15.2294 244.417 14.4385L243.133 15.9715C243.915 16.6272 244.429 17.2755 244.725 17.9058L246.535 17.0542ZM244.429 14.4486C243.507 13.6508 242.206 12.7433 240.553 11.7279L239.507 13.4321C241.12 14.4233 242.317 15.2658 243.121 15.9614L244.429 14.4486ZM240.56 11.732L239.44 11.032L238.38 12.728L239.5 13.428L240.56 11.732ZM239.433 11.0277C238.424 10.4083 237.629 9.86972 237.039 9.41065L235.811 10.9894C236.481 11.5103 237.343 12.0917 238.387 12.7323L239.433 11.0277ZM237.039 9.41065C236.486 8.98035 236.005 8.47891 235.594 7.90376L233.966 9.06624C234.489 9.79776 235.104 10.4396 235.811 10.9894L237.039 9.41065ZM235.612 7.9303C235.125 7.19905 234.87 6.34574 234.87 5.335H232.87C232.87 6.70426 233.222 7.95094 233.948 9.0397L235.612 7.9303ZM234.87 5.335C234.87 3.98447 235.295 3.0456 236.064 2.38182L234.756 0.868176C233.472 1.97773 232.87 3.5122 232.87 5.335H234.87ZM236.064 2.38182C236.879 1.678 237.94 1.295 239.33 1.295V-0.705C237.546 -0.705 235.995 -0.201336 234.756 0.868176L236.064 2.38182ZM239.33 1.295C241.193 1.295 242.599 1.96504 243.657 3.29688L245.223 2.05312C243.761 0.211626 241.761 -0.705 239.33 -0.705V1.295ZM243.44 2.675V4.46H245.44V2.675H243.44ZM245.317 3.97968C244.698 2.84833 243.839 1.94633 242.749 1.29251L241.721 3.00749C242.497 3.47367 243.109 4.11166 243.563 4.94031L245.317 3.97968ZM242.749 1.29251C241.656 0.63646 240.451 0.309999 239.155 0.309999V2.31C240.099 2.31 240.947 2.54354 241.721 3.00749L242.749 1.29251ZM239.155 0.309999C237.763 0.309999 236.535 0.749578 235.541 1.65604L236.889 3.13396C237.481 2.59375 238.214 2.31 239.155 2.31V0.309999ZM235.541 1.65604C234.512 2.59453 234.025 3.84594 234.025 5.3H236.025C236.025 4.32739 236.331 3.64213 236.889 3.13396L235.541 1.65604ZM234.025 5.3C234.025 6.71047 234.46 7.96815 235.343 9.02222L236.877 7.73778C236.313 7.06518 236.025 6.26953 236.025 5.3H234.025ZM235.363 9.04436C236.217 10.0053 237.576 10.991 239.358 12.0125L240.352 10.2775C238.634 9.29231 237.497 8.43468 236.857 7.71564L235.363 9.04436ZM239.349 12.0074C241.47 13.2523 243.081 14.3609 244.207 15.3322L245.513 13.8178C244.259 12.7358 242.534 11.5577 240.361 10.2826L239.349 12.0074ZM244.184 15.3122C244.928 15.9943 245.441 16.725 245.752 17.5014L247.608 16.7586C247.172 15.6684 246.472 14.6957 245.536 13.8378L244.184 15.3122ZM245.76 17.5211C246.097 18.316 246.275 19.219 246.275 20.245H248.275C248.275 18.9844 248.056 17.8107 247.6 16.7389L245.76 17.5211ZM246.275 20.245C246.275 21.5296 245.977 22.6148 245.409 23.5349L247.111 24.5851C247.897 23.3118 248.275 21.8538 248.275 20.245H246.275ZM245.409 23.5349C244.832 24.4697 244.039 25.1975 243.006 25.7241L243.914 27.5059C245.261 26.8192 246.334 25.8436 247.111 24.5851L245.409 23.5349ZM243.02 25.7171C241.983 26.2252 240.795 26.49 239.435 26.49V28.49C241.061 28.49 242.557 28.1715 243.9 27.5129L243.02 25.7171ZM253.433 0.749998V-0.250002H252.433V0.749998H253.433ZM262.848 0.749998H263.848V-0.250002H262.848V0.749998ZM262.848 1.765V2.765H263.848V1.765H262.848ZM254.588 1.765V0.764999H253.588V1.765H254.588ZM254.588 16.045H253.588V17.045H254.588V16.045ZM261.483 16.045H262.483V15.045H261.483V16.045ZM261.483 17.06V18.06H262.483V17.06H261.483ZM254.588 17.06V16.06H253.588V17.06H254.588ZM254.588 25.985H253.588V26.985H254.588V25.985ZM262.848 25.985H263.848V24.985H262.848V25.985ZM262.848 27V28H263.848V27H262.848ZM253.433 27H252.433V28H253.433V27ZM253.433 1.75H262.848V-0.250002H253.433V1.75ZM261.848 0.749998V1.765H263.848V0.749998H261.848ZM262.848 0.764999H254.588V2.765H262.848V0.764999ZM253.588 1.765V16.045H255.588V1.765H253.588ZM254.588 17.045H261.483V15.045H254.588V17.045ZM260.483 16.045V17.06H262.483V16.045H260.483ZM261.483 16.06H254.588V18.06H261.483V16.06ZM253.588 17.06V25.985H255.588V17.06H253.588ZM254.588 26.985H262.848V24.985H254.588V26.985ZM261.848 25.985V27H263.848V25.985H261.848ZM262.848 26H253.433V28H262.848V26ZM254.433 27V0.749998H252.433V27H254.433Z" fill="black"/>
</svg>
