<svg width="30" height="30" viewBox="0 0 30 30" fill="none" xmlns="http://www.w3.org/2000/svg">
<path fill-rule="evenodd" clip-rule="evenodd" d="M1.875 15C1.875 18.481 3.25781 21.8194 5.71922 24.2808C8.18064 26.7422 11.519 28.125 15 28.125C18.481 28.125 21.8194 26.7422 24.2808 24.2808C26.7422 21.8194 28.125 18.481 28.125 15C28.125 11.519 26.7422 8.18064 24.2808 5.71922C21.8194 3.25781 18.481 1.875 15 1.875C11.519 1.875 8.18064 3.25781 5.71922 5.71922C3.25781 8.18064 1.875 11.519 1.875 15V15ZM25.875 15C25.875 17.8842 24.7292 20.6503 22.6898 22.6898C20.6503 24.7292 17.8842 25.875 15 25.875C12.1158 25.875 9.34967 24.7292 7.31021 22.6898C5.27076 20.6503 4.125 17.8842 4.125 15C4.125 12.1158 5.27076 9.34967 7.31021 7.31021C9.34967 5.27076 12.1158 4.125 15 4.125C17.8842 4.125 20.6503 5.27076 22.6898 7.31021C24.7292 9.34967 25.875 12.1158 25.875 15V15Z" fill="#DEDEDE"/>
<path fill-rule="evenodd" clip-rule="evenodd" d="M9.375 15C9.375 21.783 11.6115 27.375 15 27.375C18.3885 27.375 20.625 21.783 20.625 15C20.625 8.217 18.3885 2.625 15 2.625C11.6115 2.625 9.375 8.217 9.375 15ZM18.375 15C18.375 20.643 16.5825 25.125 15 25.125C13.4175 25.125 11.625 20.643 11.625 15C11.625 9.357 13.4175 4.875 15 4.875C16.5825 4.875 18.375 9.357 18.375 15Z" fill="#DEDEDE"/>
<path d="M5.403 8.20047L6.912 6.53247C7.062 6.66747 7.2255 6.80247 7.3995 6.93297C9.306 8.36097 12.3495 9.24297 15.672 9.24297C18.5085 9.24297 21.15 8.60247 23.0685 7.50597C23.5305 7.24197 23.9415 6.95547 24.297 6.65097L25.758 8.36247C25.2699 8.77648 24.7435 9.14313 24.186 9.45747C21.912 10.7595 18.885 11.4915 15.672 11.4915C11.889 11.4915 8.3745 10.4745 6.0495 8.73297C5.82594 8.56549 5.61021 8.38781 5.403 8.20047V8.20047ZM5.403 21.8235L6.912 23.4915C7.062 23.355 7.2255 23.2215 7.3995 23.091C9.306 21.663 12.3495 20.781 15.672 20.781C18.5085 20.781 21.15 21.4215 23.0685 22.518C23.5305 22.782 23.9415 23.0685 24.297 23.373L25.758 21.6615C25.2693 21.2482 24.743 20.8817 24.186 20.5665C21.912 19.2645 18.885 18.5325 15.672 18.5325C11.889 18.5325 8.3745 19.5495 6.0495 21.291C5.82593 21.4584 5.6102 21.6361 5.403 21.8235V21.8235ZM2.625 16.125V13.875H27.375V16.125H2.625Z" fill="#DEDEDE"/>
</svg>
