<svg width="50" height="50" viewBox="0 0 50 50" fill="none" xmlns="http://www.w3.org/2000/svg">
<g clip-path="url(#clip0_558_6)">
<path d="M13.2184 42.8231L14.0356 43.2271C17.441 45.247 21.2547 46.1897 25.0685 46.1897C37.0548 46.1897 46.8617 36.4939 46.8617 24.6436C46.8617 18.9878 44.546 13.4665 40.46 9.42656C36.3737 5.3866 30.9253 3.09741 25.0685 3.09741C13.0823 3.09741 3.27522 12.7932 3.41151 24.7783C3.41151 28.8181 4.63738 32.7235 6.68042 36.0899L7.2252 36.898L5.04606 44.8432L13.2184 42.8231Z" fill="#00E676"/>
<path d="M42.7754 7.27181C38.1443 2.55869 31.7426 0 25.2046 0C11.3117 0 0.142611 11.177 0.278709 24.778C0.278709 29.0873 1.50457 33.262 3.54781 37.0324L0.00631714 49.8255L13.2184 46.4589C16.896 48.479 20.9821 49.4216 25.0685 49.4216C38.8254 49.4216 49.9945 38.2444 49.9945 24.6436C49.9945 18.045 47.4065 11.8504 42.7756 7.27181H42.7754ZM25.2046 45.2471C21.5271 45.2471 17.8495 44.3046 14.7167 42.4193L13.8995 42.0153L5.99953 44.0351L8.04257 36.3595L7.49778 35.5514C1.50457 25.9903 4.36498 13.3317 14.1719 7.40637C23.9788 1.48127 36.6461 4.30927 42.6393 14.005C48.6323 23.7008 45.7719 36.2245 35.9652 42.1498C32.8322 44.1697 29.0185 45.2469 25.2046 45.2469V45.2471ZM37.1909 30.2996L35.6926 29.6263C35.6926 29.6263 33.5135 28.6836 32.1513 28.0102C32.015 28.0102 31.8789 27.8755 31.7426 27.8755C31.334 27.8755 31.0616 28.0102 30.7892 28.145C30.7892 28.145 30.6531 28.2795 28.7461 30.4342C28.6098 30.7035 28.3374 30.8382 28.0651 30.8382H27.9288C27.7927 30.8382 27.5203 30.7035 27.384 30.5689L26.7029 30.2996C25.2046 29.6263 23.8427 28.8181 22.7529 27.7409C22.4805 27.4716 22.0718 27.2023 21.7994 26.933C20.846 25.9903 19.8925 24.9129 19.2116 23.701L19.0753 23.4317C18.9392 23.2969 18.9392 23.1624 18.8029 22.893C18.8029 22.6237 18.8029 22.3544 18.9392 22.2197C18.9392 22.2197 19.484 21.5463 19.8925 21.1425C20.1651 20.873 20.3012 20.4691 20.5736 20.1998C20.846 19.7958 20.9823 19.2571 20.846 18.8531C20.7099 18.1797 19.0753 14.5438 18.6668 13.7359C18.3943 13.3319 18.1221 13.1973 17.7134 13.0625H16.2151C15.9425 13.0625 15.6703 13.1973 15.3977 13.1973L15.2614 13.3319C14.9891 13.4666 14.7167 13.7359 14.4443 13.8705C14.1719 14.14 14.0356 14.4091 13.7632 14.6786C12.8097 15.8905 12.2649 17.3718 12.2649 18.8531C12.2649 19.9303 12.5373 21.0077 12.946 21.9504L13.0823 22.3544C14.3082 24.9129 15.9425 27.2023 18.1221 29.2222L18.6668 29.7608C19.0753 30.1649 19.484 30.4342 19.7564 30.838C22.6168 33.2622 25.8857 35.0127 29.5633 35.9554C29.972 36.09 30.5168 36.09 30.9255 36.2247H32.2874C32.9685 36.2247 33.7857 35.9554 34.3307 35.6861C34.7391 35.4168 35.0115 35.4168 35.2839 35.1475L35.5565 34.878C35.8289 34.6087 36.1013 34.4741 36.3737 34.2048C36.6461 33.9355 36.9185 33.6662 37.0548 33.3967C37.3272 32.8581 37.4633 32.1847 37.5996 31.5116V30.5689C37.5996 30.5689 37.4633 30.4342 37.1909 30.2996V30.2996Z" fill="white"/>
</g>
<defs>
<clipPath id="clip0_558_6">
<rect width="50" height="50" fill="white"/>
</clipPath>
</defs>
</svg>
